<svg xmlns="http://www.w3.org/2000/svg" version="1.1" xmlns:xlink="http://www.w3.org/1999/xlink" xmlns:svgjs="http://svgjs.dev/svgjs" width="1500" height="1500" viewBox="0 0 1500 1500"><rect width="1500" height="1500" fill="#194a8d"></rect><g transform="matrix(0.6666666666666666,0,0,0.6666666666666666,249.50000000000006,249.50000000000006)"><svg viewBox="0 0 280 280" data-background-color="#194a8d" preserveAspectRatio="xMidYMid meet" height="1500" width="1500" xmlns="http://www.w3.org/2000/svg" xmlns:xlink="http://www.w3.org/1999/xlink"><g id="tight-bounds" transform="matrix(1,0,0,1,0.13999999999998636,0.13999999999998636)"><svg viewBox="0 0 279.72 279.72" height="279.72" width="279.72"><g><svg viewBox="0 0 279.72 279.72" height="279.72" width="279.72"><g><svg viewBox="0 0 279.72 279.72" height="279.72" width="279.72"><g id="textblocktransform"><svg viewBox="0 0 279.72 279.72" height="279.72" width="279.72" id="textblock"><g><svg viewBox="0 0 279.72 279.72" height="279.72" width="279.72"><g transform="matrix(1,0,0,1,77.46926365654664,73.92936372216631)"><svg viewBox="0 0 124.78147268690672 131.8612725556674" height="131.8612725556674" width="124.78147268690672"><g id="icon-0"><svg xmlns="http://www.w3.org/2000/svg" xmlns:xlink="http://www.w3.org/1999/xlink" version="1.1" x="0" y="0" viewBox="4 0 141 149" enable-background="new 0 0 150 150" xml:space="preserve" height="131.8612725556674" width="124.78147268690672" class="icon-jxe-0" data-fill-palette-color="accent" id="jxe-0"><g fill="#ffffff" data-fill-palette-color="accent"><path d="M131.956 8H17.044C9.84 8 4 13.84 4 21.044V135.956C4 143.16 9.84 149 17.044 149H131.956C139.16 149 145 143.16 145 135.956V21.044C145 13.84 139.16 8 131.956 8M135 127.813C135 133.992 129.991 139.001 123.812 139.001H25.187C19.008 139 14 133.991 14 127.813V29.187C14 23.008 19.008 18 25.187 18H123.814C129.991 18 135 23.008 135 29.187z" fill="#ffffff" data-fill-palette-color="accent"></path></g><g fill="#ffffff" data-fill-palette-color="accent"><path d="M112.938 56.077L112.514 55.652C109.456 52.597 104.504 52.596 101.451 55.652L90.212 66.89 90.202 66.899 69.009 88.093 47.97 67.055A7.82 7.82 0 0 0 36.907 67.055L36.483 67.477A7.823 7.823 0 0 0 36.483 78.54L63.415 105.473C65.955 108.014 69.802 108.434 72.784 106.751A7.8 7.8 0 0 0 74.759 105.316L101.692 78.385 101.707 78.369 112.938 67.138A7.824 7.824 0 0 0 112.938 56.077" fill="#ffffff" data-fill-palette-color="accent"></path><path d="M43 17.625C43 21.724 39.949 25 36.185 25H35.815C32.051 25 29 21.724 29 17.625V7.421C29 3.323 32.051 0 35.815 0H36.185C39.949 0 43 3.323 43 7.421z" fill="#ffffff" data-fill-palette-color="accent"></path><path d="M120 17.625C120 21.724 116.948 25 113.186 25H112.817C109.052 25 106.002 21.724 106.002 17.625V7.421C106 3.323 109.052 0 112.814 0H113.183C116.948 0 120 3.323 120 7.421z" fill="#ffffff" data-fill-palette-color="accent"></path><path d="M81 17.625C81 21.724 77.949 25 74.186 25H73.815C70.051 25 67 21.724 67 17.625V7.421C67 3.323 70.051 0 73.814 0H74.185C77.949 0 81 3.323 81 7.421z" fill="#ffffff" data-fill-palette-color="accent"></path></g></svg></g></svg></g><g id="text-0"><path d="M32.624 100.209l3.646-9.418c-0.642-0.248-1.097-0.157-1.365 0.274v0c-0.081 0.135-0.15 0.275-0.206 0.42v0l-0.573 1.481-28.915 0.299-0.625 1.613 21.261 19.473-1.063 2.746 1.133 0.439 3.006-7.767c-0.642-0.248-1.097-0.157-1.365 0.275v0c-0.081 0.135-0.15 0.275-0.206 0.419v0l-0.829 2.142-7.197-6.551 3.529-9.117 9.733 0.003-1.096 2.831zM9.258 96.937l12.146-0.008-3.157 8.154z" fill="#ffffff" data-fill-palette-color="primary"></path><path d="M25.869 69.805l0.945 0.696 1.946-2.639 10.614 7.824c3.267 2.14 5.953 1.89 8.057-0.749v0c1.701-2.308 1.346-4.799-1.066-7.474v0c-0.022-0.016-0.046-0.034-0.073-0.054v0l-0.938 0.88c1.621 2.167 2.074 3.917 1.359 5.251v0c-1.05 1.322-2.525 1.299-4.425-0.068v0l-11.445-8.437 4.305-5.84-0.944-0.697-4.306 5.841-4.366-3.219-1.293 3.409 3.576 2.636z" fill="#ffffff" data-fill-palette-color="primary"></path><path d="M45.083 46.982l0.772 0.884 2.47-2.156 8.671 9.933c2.727 2.796 5.403 3.133 8.029 1.011v0c2.16-1.886 2.352-4.395 0.575-7.527v0c-0.018-0.02-0.038-0.043-0.06-0.069v0l-1.106 0.657c1.114 2.466 1.178 4.273 0.192 5.42v0c-1.311 1.063-2.746 0.722-4.306-1.023v0l-9.35-10.711 5.466-4.772-0.772-0.884-5.466 4.771-3.567-4.086-2 3.049 2.922 3.347z" fill="#ffffff" data-fill-palette-color="primary"></path><path d="M78.735 24.425v0c1.935-1.017 3.647-0.876 5.137 0.422v0c0.497 0.409 0.906 0.919 1.226 1.527v0c0.725 1.38 0.504 2.57-0.661 3.572v0c-0.615 0.498-1.566 1.067-2.854 1.705v0l-4.455 2.181c-1.529-3.243-1.58-5.857-0.154-7.841v0c0.457-0.667 1.044-1.189 1.761-1.566zM92.781 33.643v0l-1.232 0.179c0.134 2.605-0.802 4.609-2.807 6.013v0c-0.265 0.177-0.52 0.33-0.765 0.459v0c-2.902 1.525-5.631 0.756-8.186-2.306v0c-0.729-0.851-1.413-1.849-2.052-2.991v0l5.015-2.532c3.397-1.716 5.398-3.172 6.004-4.367v0c0.449-0.945 0.405-1.927-0.131-2.949v0c-0.985-1.875-2.721-2.865-5.207-2.969v0c-1.77-0.091-3.539 0.328-5.307 1.257v0c-3.452 1.814-5.17 4.549-5.153 8.207v0c0.011 1.892 0.511 3.778 1.499 5.659v0c1.798 3.422 4.359 5.315 7.683 5.68v0c1.972 0.199 3.898-0.196 5.779-1.185v0c2.98-1.566 4.61-3.794 4.89-6.684v0c0.017-0.504 0.007-0.994-0.03-1.471z" fill="#ffffff" data-fill-palette-color="primary"></path><path d="M115.889 30.682v0l-2.066 0.401-1.927-9.914c-0.461-2.866 0.15-5.115 1.833-6.748v0c0.727-0.677 1.522-1.1 2.383-1.267v0c1.868-0.363 3.305 0.261 4.312 1.874v0c0.415 0.648 0.709 1.419 0.883 2.313v0l1.766 9.089c0.274 1.411 0.04 2.329-0.702 2.755v0c-0.434 0.242-1.171 0.465-2.21 0.666v0l0.224 1.153 10.341-2.01c-0.131-0.675-0.434-0.998-0.91-0.967v0c-0.126-0.01-0.281 0.003-0.466 0.039v0l-2.295 0.446-2.213-11.384c-0.596-3.066-2.078-5.05-4.444-5.951v0c-1.093-0.392-2.206-0.478-3.339-0.258v0c-2.265 0.44-3.957 1.707-5.076 3.801v0c-0.42 0.81-0.712 1.674-0.877 2.593v0l-1.081-4.553-6.656 1.293 0.224 1.153 3.437-0.668 2.811 14.463c0.274 1.411 0.04 2.329-0.701 2.755v0c-0.427 0.241-1.161 0.463-2.201 0.665v0l0.224 1.152 10.103-1.963c-0.131-0.675-0.431-0.999-0.9-0.969v0c-0.132-0.009-0.291 0.005-0.477 0.041z" fill="#ffffff" data-fill-palette-color="primary"></path><path d="M159.305 25.79l-0.17 4.969 6.649 0.731c0.075-0.684-0.119-1.082-0.581-1.194v0c-0.117-0.047-0.269-0.081-0.458-0.101v0l-2.323-0.255 3.104-29.071-7.906-0.869-0.127 1.157 4.416 0.485-1.248 11.347c-1.339-1.837-3.292-2.897-5.86-3.179v0c-3.413-0.375-6.155 0.86-8.227 3.707v0c-1.257 1.742-2.014 3.776-2.269 6.103v0c-0.422 3.843 0.479 6.782 2.705 8.819v0c1.256 1.109 2.705 1.753 4.349 1.934v0c3.386 0.311 6.035-1.216 7.946-4.584zM148.319 19.501v0c0.481-4.372 1.97-7.083 4.467-8.131v0c0.789-0.321 1.632-0.431 2.531-0.333v0c2.267 0.249 3.746 1.637 4.439 4.163v0c0.387 1.359 0.483 2.924 0.288 4.695v0c-0.409 3.722-1.638 6.315-3.685 7.78v0c-1.091 0.789-2.271 1.115-3.538 0.975v0c-2.542-0.279-4.031-2.011-4.469-5.195v0c-0.182-1.181-0.194-2.499-0.033-3.954z" fill="#ffffff" data-fill-palette-color="primary"></path><path d="M204.701 25.442l0.855 0.368 3.112-7.827-19.811-8.519-0.479 1.116 3.439 1.479-10.129 23.557-3.44-1.479-0.48 1.116 19.811 8.519 3.54-7.643-0.855-0.368-1.472 1.758c-1.76 2.129-3.449 3.136-5.066 3.02v0c-0.489-0.041-0.978-0.167-1.468-0.377v0l-6.88-2.959 4.973-11.564 8.86 3.809 0.536-1.246-8.86-3.809 4.621-10.747 6.88 2.958c2.064 0.887 2.941 2.913 2.63 6.077v0c-0.01 0.194-0.028 0.355-0.054 0.484v0z" fill="#ffffff" data-fill-palette-color="primary"></path><path d="M221.39 62.606v0c1.831 1.555 3.78 1.307 5.849-0.742v0c0.138-0.121 0.26-0.244 0.364-0.367v0l-0.899-0.817c-1.636 1.593-2.846 2.079-3.629 1.459v0c-0.578-0.57-0.373-1.463 0.615-2.678v0l6.387-7.521c2.887-3.399 2.711-6.637-0.526-9.714v0c-0.216-0.183-0.429-0.365-0.641-0.543v0c-2.664-2.262-4.972-3.16-6.925-2.695v0c-0.628 0.166-1.112 0.45-1.453 0.851v0c-0.629 0.74-0.649 1.462-0.06 2.165v0c0.101 0.121 0.21 0.232 0.329 0.333v0c0.545 0.463 1.241 0.461 2.088-0.005v0c1.081-0.595 1.751-0.925 2.009-0.99v0c0.959-0.212 1.914 0.086 2.866 0.894v0c2.109 2.039 2.22 4.244 0.331 6.614v0l-1.907 2.244c-5.584-4.743-9.77-6.292-12.555-4.648v0c-0.528 0.33-1.015 0.758-1.46 1.282v0c-1.533 1.805-1.784 3.716-0.754 5.733v0c0.415 0.804 0.98 1.509 1.695 2.116v0c1.738 1.476 3.705 2.125 5.902 1.946v0c0.811-0.09 1.536-0.293 2.176-0.608v0c-1.516 2.359-1.45 4.256 0.198 5.691zM215.506 55.153v0c-1.45-1.232-1.727-2.714-0.829-4.449v0c0.207-0.39 0.484-0.788 0.828-1.194v0c1.354-1.594 3.127-1.827 5.321-0.7v0c1.16 0.614 2.675 1.696 4.544 3.248v0l-2.424 2.854c-1.748 1.339-3.593 1.755-5.534 1.248v0c-0.751-0.231-1.386-0.567-1.906-1.007z" fill="#ffffff" data-fill-palette-color="primary"></path><path d="M237.178 79.474v0c1.242 1.757 2.614 2.564 4.115 2.42v0c0.544-0.037 1.044-0.218 1.501-0.541v0c1.074-0.759 1.442-2.185 1.105-4.275v0c-0.052-0.459-0.183-1.188-0.394-2.188v0c-0.611-2.699-0.777-4.664-0.499-5.894v0c0.316-1.33 1.035-2.392 2.159-3.187v0c1.757-1.242 3.677-1.145 5.759 0.292v0c0.958 0.653 1.806 1.503 2.546 2.55v0c1.188 1.68 1.859 3.383 2.012 5.108v0c0.738-0.522 1.283-0.639 1.636-0.351v0c0.133 0.129 0.263 0.285 0.392 0.467v0l-4.776 3.377-0.701-0.992c2.302-1.71 2.568-3.848 0.796-6.412v0c-1.351-1.912-2.748-2.701-4.19-2.368v0c-0.398 0.091-0.762 0.254-1.093 0.488v0c-1.096 0.775-1.468 2.224-1.116 4.346v0c0.073 0.477 0.229 1.206 0.467 2.186v0c0.618 2.662 0.785 4.605 0.502 5.829v0c-0.293 1.315-0.999 2.367-2.118 3.157v0c-2.066 1.46-4.213 1.339-6.442-0.365v0c-0.877-0.644-1.666-1.462-2.367-2.454v0c-1.275-1.85-1.943-3.765-2.005-5.746v0c-0.661 0.467-1.158 0.571-1.49 0.311v0c-0.137-0.135-0.277-0.304-0.421-0.508v0l5.809-4.107 0.759 1.074c-3.254 2.375-3.902 4.969-1.946 7.783z" fill="#ffffff" data-fill-palette-color="primary"></path><path d="M268.522 101.217v0c0.761 2.049 0.403 3.729-1.074 5.041v0c-0.47 0.441-1.027 0.781-1.672 1.021v0c-1.461 0.543-2.613 0.172-3.458-1.112v0c-0.416-0.673-0.858-1.689-1.327-3.048v0l-1.594-4.697c3.412-1.102 6.011-0.819 7.797 0.848v0c0.603 0.539 1.046 1.188 1.328 1.947zM257.586 113.971v0l-0.02-1.245c-2.6-0.2-4.469-1.384-5.606-3.552v0c-0.142-0.285-0.261-0.558-0.358-0.817v0c-1.142-3.073-0.031-5.681 3.333-7.824v0c0.938-0.615 2.014-1.166 3.229-1.653v0l1.871 5.296c1.268 3.588 2.457 5.759 3.564 6.513v0c0.88 0.566 1.86 0.648 2.942 0.246v0c1.986-0.738 3.189-2.333 3.609-4.785v0c0.316-1.744 0.127-3.552-0.569-5.424v0c-1.358-3.655-3.852-5.708-7.482-6.159v0c-1.878-0.231-3.813 0.024-5.804 0.765v0c-3.624 1.347-5.828 3.645-6.615 6.895v0c-0.449 1.93-0.303 3.891 0.438 5.883v0c1.173 3.156 3.175 5.057 6.005 5.703v0c0.498 0.081 0.985 0.134 1.463 0.158z" fill="#ffffff" data-fill-palette-color="primary"></path><path d="M0.861 147.069c0-6.416 5.201-11.616 11.617-11.616 6.416 0 11.616 5.201 11.616 11.616 0 6.416-5.201 11.616-11.616 11.616-6.416 0-11.616-5.201-11.617-11.616z" fill="#ffffff" data-fill-palette-color="primary"></path><path d="M255.626 147.069c0-6.416 5.201-11.616 11.616-11.616 6.416 0 11.616 5.201 11.617 11.616 0 6.416-5.201 11.616-11.617 11.616-6.416 0-11.616-5.201-11.616-11.616z" fill="#ffffff" data-fill-palette-color="primary"></path></g><g id="text-1"><path d="M29.068 193.46l0.519-0.172-1.06-3.209-11.233-1.096 8.266-7.889-0.946-2.863-0.519 0.171 0.53 1.605-10.993 3.631-0.53-1.605-0.519 0.172 1.324 4.007c0.295-0.097 0.426-0.258 0.395-0.483v0c-0.01-0.075-0.026-0.144-0.048-0.208v0l-0.358-1.086 8.628-2.85-7.793 7.445 0.14 0.423 11.85 1.223-9.706 3.205-0.53-1.605-0.519 0.172 1.591 4.814c0.295-0.097 0.426-0.258 0.394-0.482v0c-0.01-0.075-0.026-0.144-0.047-0.208v0l-0.359-1.086 10.993-3.631z" fill="#ffffff" data-fill-palette-color="secondary"></path><path d="M22.341 207.353l1.997 4.093c0.279-0.136 0.388-0.313 0.327-0.531v0c-0.017-0.067-0.042-0.133-0.075-0.2v0l-0.315-0.646 8.772-9.665-0.342-0.701-12.972 1.063-0.582-1.191-0.491 0.24 1.647 3.373c0.279-0.136 0.388-0.313 0.327-0.531v0c-0.017-0.067-0.042-0.133-0.075-0.199v0l-0.453-0.928 4.375-0.379 1.94 3.974-2.99 3.216-0.599-1.227zM30.596 200.62l-3.722 4.025-1.736-3.556z" fill="#ffffff" data-fill-palette-color="secondary"></path><path d="M25.786 213.937l2.772 4.378 0.462-0.293-0.893-1.41 4.445-2.815 1.072 1.693-3.099 5.963 1.705 2.693c0.262-0.166 0.365-0.331 0.309-0.495v0c-0.025-0.064-0.064-0.139-0.118-0.225v0l-0.428-0.675 2.79-5.791c0.988 0.955 2.064 1.356 3.228 1.202v0c0.457-0.073 0.87-0.228 1.241-0.462v0c0.889-0.563 1.358-1.399 1.406-2.508v0c0.027-0.903-0.254-1.82-0.842-2.749v0l-3.345-5.284-0.462 0.293 0.904 1.428-9.781 6.193-0.904-1.428zM37.908 210.419l1.131 1.787c0.646 1.02 0.677 1.991 0.094 2.91v0c-0.25 0.374-0.563 0.68-0.939 0.919v0c-0.861 0.545-1.715 0.671-2.564 0.377v0c-0.581-0.199-1.041-0.566-1.381-1.102v0l-1.164-1.838z" fill="#ffffff" data-fill-palette-color="secondary"></path><path d="M34.021 226.452l3.257 4.029c0.241-0.195 0.306-0.395 0.193-0.598v0c-0.032-0.061-0.069-0.118-0.112-0.171v0l-0.706-0.873 3.833-3.098 1.49 0.201-1.911 7.986 1.845 2.282c0.241-0.195 0.308-0.392 0.199-0.59v0c-0.036-0.066-0.075-0.126-0.118-0.178v0l-0.356-0.441 2.12-8.806 5.083 0.718c0.714 0.1 1.182 0.228 1.405 0.387v0c0.102 0.083 0.197 0.179 0.286 0.289v0c0.195 0.241 0.392 0.308 0.591 0.199v0c0.066-0.036 0.126-0.075 0.178-0.118v0l-2.392-2.959-0.425 0.344 1.062 1.314-8.325-1.22 4.438-3.588 1.05 1.298 0.425-0.343-3.258-4.03-0.424 0.344 1.062 1.314-9.003 7.278-1.062-1.314z" fill="#ffffff" data-fill-palette-color="secondary"></path><path d="M53.706 247.499l3.401 3.028c0.206-0.232 0.24-0.437 0.101-0.615v0c-0.041-0.055-0.09-0.107-0.145-0.157v0l-0.537-0.477 4.449-12.271-0.582-0.519-11.599 5.906-0.99-0.882-0.363 0.408 2.804 2.497c0.206-0.232 0.24-0.437 0.1-0.615v0c-0.041-0.055-0.09-0.107-0.145-0.157v0l-0.771-0.686 3.904-2.011 3.303 2.94-1.546 4.111-1.02-0.908zM58.79 238.137l-1.917 5.136-2.955-2.632z" fill="#ffffff" data-fill-palette-color="secondary"></path><path d="M61.212 253.594l4.719 3.387c0.181-0.252 0.19-0.462 0.027-0.628v0c-0.047-0.05-0.101-0.097-0.161-0.14v0l-1.159-0.832 6.75-9.405 0.995 0.714c0.926 0.665 1.14 1.669 0.64 3.013v0c-0.031 0.044-0.05 0.081-0.054 0.11v0l-0.555 1.346 0.485 0.348 2.335-3.444-8.476-6.084-2.508 3.32 0.477 0.343 1.106-0.951c1.17-0.855 2.219-1.003 3.147-0.444v0l0.929 0.666-6.751 9.406-1.628-1.169z" fill="#ffffff" data-fill-palette-color="secondary"></path><path d="M72.992 261.409l5.054 2.863c0.153-0.27 0.14-0.479-0.04-0.627v0c-0.052-0.045-0.11-0.086-0.175-0.123v0l-1.241-0.703 5.706-10.073 1.065 0.604c0.992 0.562 1.312 1.538 0.959 2.927v0c-0.027 0.047-0.041 0.086-0.042 0.116v0l-0.408 1.397 0.519 0.294 1.954-3.673-9.078-5.143-2.138 3.569 0.51 0.289 0.998-1.063c1.072-0.975 2.099-1.234 3.081-0.778v0l0.995 0.563-5.706 10.073-1.744-0.987z" fill="#ffffff" data-fill-palette-color="secondary"></path><path d="M95.63 262.649l0.39 0.17 1.425-3.519-8.933-3.896-0.218 0.501 1.549 0.676-4.629 10.611-1.549-0.676-0.219 0.501 8.933 3.896 1.614-3.447-0.39-0.17-0.665 0.792c-0.802 0.96-1.565 1.411-2.29 1.352v0c-0.228-0.018-0.45-0.075-0.666-0.169v0l-3.098-1.351 2.274-5.213 3.988 1.74 0.243-0.557-3.989-1.739 2.112-4.842 3.098 1.351c0.928 0.405 1.32 1.319 1.177 2.744v0c-0.01 0.091-0.02 0.164-0.029 0.219v0z" fill="#ffffff" data-fill-palette-color="secondary"></path><path d="M108.265 262.646l-0.157 0.524 1.715 0.516-2.728 9.06-4.798-11.897-2.81-0.846-0.158 0.523 1.618 0.487-3.338 11.085-1.618-0.487-0.158 0.523 4.147 1.249c0.089-0.297 0.03-0.498-0.177-0.603v0c-0.061-0.032-0.127-0.059-0.198-0.081v0l-1.192-0.358 2.822-9.37 4.937 12.382 0.989 0.087 3.466-11.512 1.618 0.488 0.158-0.524z" fill="#ffffff" data-fill-palette-color="secondary"></path><path d="M119.816 265.211l-5.811-1.021-0.095 0.538 1.665 0.293-2.003 11.402-1.664-0.292-0.095 0.538 5.741 1.008c1.874 0.329 3.518 0.018 4.931-0.932v0c1.392-0.947 2.25-2.341 2.574-4.182v0c0.419-2.385-0.148-4.286-1.701-5.703v0c-0.946-0.851-2.127-1.401-3.542-1.649zM117.369 265.336l2.282 0.401c2.193 0.385 3.386 1.625 3.58 3.721v0c0.078 0.767 0.027 1.659-0.151 2.675v0c-0.606 3.449-2.119 5.145-4.542 5.09v0c-0.267 0.001-0.541-0.023-0.819-0.072v0l-2.353-0.413z" fill="#ffffff" data-fill-palette-color="secondary"></path><path d="M135.61 279.507l4.549 0.213c0.015-0.31-0.088-0.49-0.309-0.541v0c-0.067-0.017-0.137-0.027-0.211-0.03v0l-0.718-0.034-4.265-12.336-0.778-0.037-5.298 11.889-1.324-0.062-0.026 0.546 3.75 0.175c0.015-0.31-0.088-0.49-0.309-0.541v0c-0.067-0.017-0.137-0.027-0.211-0.03v0l-1.031-0.048 1.769-4.021 4.417 0.207 1.385 4.168-1.364-0.064zM133.669 269.032l1.742 5.198-3.952-0.185z" fill="#ffffff" data-fill-palette-color="secondary"></path><path d="M150.923 266.397l0.038 0.545 1.786-0.123 0.653 9.439-8.696-9.431-2.928 0.202 0.038 0.546 1.686-0.117 0.799 11.549-1.686 0.117 0.037 0.545 4.321-0.299c-0.021-0.31-0.148-0.477-0.379-0.501v0c-0.068-0.009-0.139-0.011-0.214-0.006v0l-1.242 0.086-0.675-9.762 8.998 9.836 0.956-0.269-0.83-11.993 1.686-0.117-0.037-0.545z" fill="#ffffff" data-fill-palette-color="secondary"></path><path d="M169.562 275.357v0c0.108 0.584 0.252 0.9 0.433 0.949v0c0.1 0.023 0.233 0.019 0.399-0.012v0l-0.725-3.921-0.498 0.093c-0.281 2.412-1.478 3.821-3.592 4.225v0c-1.804 0.334-3.199-0.344-4.184-2.035v0c-0.483-0.83-0.835-1.845-1.058-3.046v0c-0.479-2.587-0.091-4.477 1.164-5.67v0c0.551-0.507 1.208-0.831 1.971-0.972v0c1.731-0.32 3.137 0.267 4.216 1.762v0c0.185 0.261 0.356 0.534 0.512 0.821v0l0.498-0.092-0.767-3.81c-0.305 0.056-0.472 0.19-0.502 0.402v0c-0.016 0.174 0.011 0.447 0.079 0.818v0c-0.473-0.331-1.216-0.53-2.23-0.595v0c-0.665-0.035-1.333 0.01-2.003 0.134v0c-2.183 0.404-3.708 1.523-4.575 3.357v0c-0.59 1.296-0.747 2.694-0.47 4.194v0c0.335 1.811 1.177 3.23 2.527 4.256v0c1.43 1.053 3.1 1.402 5.011 1.048v0c1.397-0.272 2.662-0.908 3.794-1.906z" fill="#ffffff" data-fill-palette-color="secondary"></path><path d="M180.528 263.957l0.407-0.123-1.195-3.603-9.328 2.819 0.158 0.524 1.618-0.489 3.349 11.081-1.618 0.489 0.158 0.523 9.329-2.819-1.004-3.672-0.407 0.123 0.006 1.035c0.012 1.251-0.278 2.089-0.868 2.514v0c-0.185 0.134-0.391 0.234-0.617 0.302v0l-3.235 0.978-1.646-5.444 4.165-1.259-0.175-0.581-4.166 1.259-1.528-5.056 3.236-0.978c0.969-0.293 1.86 0.15 2.674 1.327v0c0.051 0.076 0.091 0.138 0.119 0.186v0z" fill="#ffffff" data-fill-palette-color="secondary"></path><path d="M202.755 263.46l0.153-0.079-1.804-12.696 0.937-0.479-0.249-0.487-3.045 1.559 0.249 0.486 1.504-0.77 1.597 10.381-7.569-7.323 1.522-0.78-0.249-0.486-3.234 1.655 3.124 2.949 0.947 6.734-7.695-7.213 1.522-0.78-0.249-0.486-4.134 2.117 0.249 0.486 1.108-0.567 8.407 7.895c0.612 0.589 1.039 0.867 1.28 0.834v0c0.084-0.013 0.166-0.039 0.243-0.08v0l0.153-0.078-1.091-8.15 4.919 4.656c0.554 0.52 0.92 0.783 1.098 0.791v0c0.091-0.001 0.193-0.03 0.307-0.089z" fill="#ffffff" data-fill-palette-color="secondary"></path><path d="M209.979 259.52l4.351-2.813c-0.168-0.261-0.36-0.346-0.574-0.255v0c-0.064 0.025-0.124 0.056-0.181 0.093v0l-0.944 0.61-6.285-9.723 1.403-0.906-0.297-0.459-4.351 2.813 0.296 0.459 1.42-0.918 6.285 9.722-1.42 0.918z" fill="#ffffff" data-fill-palette-color="secondary"></path><path d="M219.052 253.184l4.584-3.568c-0.191-0.245-0.389-0.313-0.595-0.203v0c-0.062 0.031-0.122 0.069-0.18 0.114v0l-1.126 0.876-7.111-9.135 0.967-0.753c0.9-0.7 1.923-0.621 3.071 0.239v0c0.033 0.043 0.063 0.07 0.09 0.084v0l1.134 0.912 0.471-0.366-2.642-3.214-8.234 6.408 2.475 3.344 0.463-0.36-0.599-1.329c-0.489-1.364-0.334-2.412 0.464-3.144v0l0.903-0.703 7.11 9.136-1.581 1.231z" fill="#ffffff" data-fill-palette-color="secondary"></path><path d="M228.281 245.629l3.683-3.644c-0.218-0.221-0.423-0.265-0.614-0.132v0c-0.057 0.038-0.11 0.081-0.158 0.128v0l-0.799 0.79-4-4.043 4.612-4.562 4 4.043-1.202 1.188 0.384 0.389 3.677-3.637c-0.218-0.221-0.421-0.267-0.608-0.139v0c-0.062 0.043-0.117 0.088-0.165 0.135v0l-0.799 0.79-8.142-8.23 1.187-1.175-0.384-0.388-3.676 3.637 0.384 0.388 1.202-1.188 3.715 3.755-4.612 4.562-3.715-3.755 1.187-1.175-0.384-0.388-3.683 3.644 0.384 0.388 1.201-1.188 8.142 8.23-1.201 1.188z" fill="#ffffff" data-fill-palette-color="secondary"></path><path d="M242.352 215.884l0.25-0.344-3.127-2.151-5.736 7.878 0.442 0.322 0.995-1.366 9.359 6.813-0.995 1.367 0.442 0.321 5.736-7.878-3.017-2.322-0.25 0.344 0.629 0.821c0.764 0.99 1.04 1.833 0.825 2.529v0c-0.067 0.218-0.17 0.423-0.309 0.613v0l-1.989 2.733-4.598-3.348 2.561-3.517-0.491-0.358-2.561 3.518-4.27-3.109 1.989-2.732c0.596-0.818 1.573-1.003 2.933-0.556v0c0.087 0.03 0.156 0.055 0.208 0.076v0z" fill="#ffffff" data-fill-palette-color="secondary"></path><path d="M255.561 210.808l2.234-3.968c-0.27-0.152-0.478-0.141-0.622 0.033v0c-0.045 0.052-0.086 0.111-0.122 0.175v0l-0.353 0.626-12.937-1.734-0.382 0.679 8.239 10.075-0.65 1.156 0.476 0.268 1.842-3.272c-0.27-0.152-0.478-0.141-0.622 0.033v0c-0.045 0.052-0.086 0.111-0.122 0.175v0l-0.506 0.9-2.797-3.387 2.17-3.853 4.346 0.635-0.671 1.191zM245.331 207.834l5.426 0.78-1.942 3.447z" fill="#ffffff" data-fill-palette-color="secondary"></path><path d="M259.77 194.327v0c-1.142-0.503-2.334-0.29-3.576 0.638v0c-0.238 0.19-0.913 0.792-2.023 1.807v0c-0.993 0.934-1.815 1.435-2.463 1.503v0c-0.346 0.032-0.682-0.024-1.01-0.168v0c-0.858-0.378-1.272-1.061-1.242-2.051v0c0.016-0.421 0.12-0.85 0.313-1.288v0c0.476-1.081 1.206-1.743 2.19-1.988v0c0.672-0.154 1.367-0.065 2.084 0.265v0l0.253-0.575-3.39-1.492c-0.136 0.309-0.116 0.531 0.06 0.668v0c0.076 0.063 0.191 0.128 0.345 0.196v0c-0.905 0.7-1.609 1.621-2.112 2.763v0c-0.614 1.395-0.705 2.649-0.273 3.761v0c0.318 0.752 0.838 1.287 1.56 1.604v0c1.081 0.476 2.23 0.259 3.448-0.649v0c0.206-0.167 0.857-0.758 1.952-1.772v0c1.03-0.933 1.875-1.438 2.536-1.516v0c0.37-0.036 0.728 0.022 1.073 0.174v0c0.908 0.4 1.366 1.125 1.375 2.176v0c-0.003 0.493-0.115 0.989-0.334 1.489v0c-0.894 1.965-2.581 2.531-5.06 1.698v0l-0.257 0.583 4.001 1.762c0.136-0.309 0.127-0.53-0.028-0.665v0c-0.094-0.071-0.277-0.166-0.548-0.286v0c1.098-0.703 1.925-1.685 2.479-2.944v0c0.652-1.482 0.757-2.807 0.312-3.976v0c-0.32-0.797-0.875-1.369-1.665-1.717z" fill="#ffffff" data-fill-palette-color="secondary"></path><path d="M258.525 180.285l0.13-0.405-3.644-1.062-2.976 9.28 0.52 0.167 0.516-1.61 11.024 3.535-0.516 1.61 0.521 0.167 2.975-9.28-3.592-1.258-0.13 0.404 0.855 0.583c1.036 0.701 1.562 1.415 1.577 2.142v0c0.005 0.228-0.029 0.455-0.102 0.679v0l-1.032 3.219-5.415-1.737 1.329-4.143-0.579-0.186-1.328 4.144-5.031-1.613 1.032-3.219c0.309-0.964 1.179-1.446 2.611-1.447v0c0.092 0.001 0.165 0.003 0.221 0.007v0z" fill="#ffffff" data-fill-palette-color="secondary"></path></g></svg></g></svg></g></svg></g><g></g></svg></g><defs></defs></svg><rect width="279.72" height="279.72" fill="none" stroke="none" visibility="hidden"></rect></g></svg></g></svg>